<?xml version="1.0" standalone="no"?><!DOCTYPE svg PUBLIC "-//W3C//DTD SVG 1.1//EN" "http://www.w3.org/Graphics/SVG/1.1/DTD/svg11.dtd"><svg t="1535642247727" class="icon" style="" viewBox="0 0 1024 1024" version="1.1" xmlns="http://www.w3.org/2000/svg" p-id="533" xmlns:xlink="http://www.w3.org/1999/xlink" width="32" height="32"><defs><style type="text/css"></style></defs><path d="M550.208011 840.917333l0-45.952c32.106667-6.954667 60.181333-18.688 84.032-35.434667 40.810667-28.650667 61.226667-67.904 61.226667-117.696 0-35.733333-10.645333-65.706667-31.957333-89.941333-21.312-24.256-62.314667-47.701333-122.944-70.272-47.850667-19.008-78.762667-34.581333-92.693333-46.677333-13.952-12.117333-20.906667-28.992-20.906667-50.645333 0-21.952 9.664-39.637333 29.034667-53.077333 19.328-13.418667 44.394667-20.138667 75.221333-20.138667 51.477333 0 97.514667 13.12 138.197333 39.317333L669.418677 257.493333c-36.885333-14.933333-76.714667-22.592-119.232-23.658667l0-51.2-76.821333 0 0 57.898667c-31.189333 6.976-59.114667 19.029333-83.541333 36.394667-40.810667 28.992-61.226667 67.584-61.226667 115.733333 0 33.749333 9.002667 62.485333 27.050667 86.229333 18.005333 23.786667 57.194667 47.765333 117.525333 72 50.154667 18.688 83.413333 34.837333 99.818667 48.426667 16.405333 13.589333 24.554667 30.869333 24.554667 51.84 0 49.152-37.525333 73.728-112.597333 73.728-56.085333 0-108.373333-17.514667-156.885333-52.586667l0 98.282667c41.386667 20.992 89.834667 31.594667 145.258667 31.893333l0 38.442667L550.208011 840.917333z" p-id="534"></path><path d="M905.109344 400.597333c-49.408-175.381333-211.093333-297.856-393.130667-297.856S168.277344 225.216 118.869344 400.597333L19.968011 372.693333C81.813344 153.258667 284.138677 0 511.978677 0s430.186667 153.258667 492.010667 372.693333L905.109344 400.597333z" p-id="535"></path><path d="M511.978677 1023.808c-227.861333 0-430.186667-153.258667-492.010667-372.693333l98.901333-27.882667c49.408 175.381333 211.093333 297.834667 393.130667 297.834667s343.701333-122.453333 393.130667-297.834667l98.901333 27.882667C942.186677 870.570667 739.840011 1023.808 511.978677 1023.808z" p-id="536"></path></svg>