<?xml version="1.0" standalone="no"?><!DOCTYPE svg PUBLIC "-//W3C//DTD SVG 1.1//EN" "http://www.w3.org/Graphics/SVG/1.1/DTD/svg11.dtd"><svg t="1540611409579" class="icon" style="" viewBox="0 0 1024 1024" version="1.1" xmlns="http://www.w3.org/2000/svg" p-id="1128" xmlns:xlink="http://www.w3.org/1999/xlink" width="32" height="32"><defs><style type="text/css"></style></defs><path d="M15.515152 114.5142304C15.515152 59.851248 60.0994912 15.515152 114.31563627 15.515152h795.36872746C964.1984 15.515152 1008.484848 59.95054507 1008.484848 114.5142304v596.3776A99.14802453 99.14802453 0 0 1 909.68436373 809.8909088H114.31563627C59.8016 809.8909088 15.515152 765.45551467 15.515152 710.8918304V114.5142304z m99.2969696 50.04567253v496.28625494C114.8121216 687.9542304 137.05464213 710.5939392 164.46060587 710.5939392h695.07878826a49.64848533 49.64848533 0 0 0 49.64848427-49.74778133V164.55990293C909.1878784 137.4518304 886.94535787 114.8121216 859.53939413 114.8121216H164.46060587a49.64848533 49.64848533 0 0 0-49.64848427 49.74778133z m99.2969696 446.6377696V214.1090912l595.7818176 0.09929707L809.8412608 611.2969696S214.1090912 611.09837547 214.1090912 611.19767253zM15.515152 958.83636373c0-27.40596373 22.5900608-49.64848533 49.251296-49.64848533h894.467104c27.2073696 0 49.25129707 22.04392747 49.251296 49.64848533 0 27.40596373-22.5900608 49.64848533-49.251296 49.64848427H64.766448A49.30094507 49.30094507 0 0 1 15.515152 958.83636373z" p-id="1129"></path></svg>