<?xml version="1.0" standalone="no"?><!DOCTYPE svg PUBLIC "-//W3C//DTD SVG 1.1//EN" "http://www.w3.org/Graphics/SVG/1.1/DTD/svg11.dtd"><svg t="1540344111530" class="icon" style="" viewBox="0 0 1024 1024" version="1.1" xmlns="http://www.w3.org/2000/svg" p-id="1819" xmlns:xlink="http://www.w3.org/1999/xlink" width="32" height="32"><defs><style type="text/css"></style></defs><path d="M484 533.6m-356.2 0a356.2 356.2 0 1 0 712.4 0 356.2 356.2 0 1 0-712.4 0Z" fill="#E5E8EA" p-id="1820"></path><path d="M501.2 511.7m-215.9 0a215.9 215.9 0 1 0 431.8 0 215.9 215.9 0 1 0-431.8 0Z" fill="#B5D9F4" p-id="1821"></path><path d="M247.1 386.9m-15.1 0a15.1 15.1 0 1 0 30.2 0 15.1 15.1 0 1 0-30.2 0Z" fill="#E5E8EA" p-id="1822"></path><path d="M501.2 187.9c-178.8 0-323.8 145-323.8 323.8s145 323.8 323.8 323.8S825 690.5 825 511.7 680.1 187.9 501.2 187.9z m0 457.5c-73.8 0-133.7-59.9-133.7-133.7S427.4 378 501.2 378s133.7 59.9 133.7 133.7-59.8 133.7-133.7 133.7z" fill="#FFFFFF" p-id="1823"></path><path d="M501.2 849.4c-90.2 0-175-35.1-238.8-98.9-63.8-63.8-98.9-148.6-98.9-238.8 0-90.2 35.1-175 98.9-238.8C326.2 209.1 411 174 501.2 174c90.2 0 175 35.1 238.8 98.9 63.8 63.8 98.9 148.6 98.9 238.8 0 90.2-35.1 175-98.9 238.8s-148.5 98.9-238.8 98.9z m0-647.5c-82.7 0-160.5 32.2-219 90.7s-90.7 136.3-90.7 219 32.2 160.5 90.7 219 136.3 90.7 219 90.7 160.5-32.2 219-90.7 90.7-136.3 90.7-219-32.2-160.5-90.7-219-136.2-90.7-219-90.7z m0 457.5c-81.4 0-147.7-66.3-147.7-147.7 0-81.4 66.3-147.7 147.7-147.7 81.4 0 147.7 66.3 147.7 147.7 0 81.4-66.2 147.7-147.7 147.7z m0-267.4c-66 0-119.7 53.7-119.7 119.7s53.7 119.7 119.7 119.7 119.7-53.7 119.7-119.7S567.2 392 501.2 392z" fill="" p-id="1824"></path><path d="M508.6 811c-38.3 0-76.4-7.4-112.3-22-53.2-21.6-98.7-58-131.7-105.2-45.5-65.1-62.9-144.1-49-222.4 1.4-7.6 8.6-12.7 16.2-11.3 7.6 1.4 12.7 8.6 11.3 16.2-12.6 70.9 3.2 142.4 44.4 201.4 29.9 42.8 71.1 75.8 119.3 95.3 46.9 19.1 98 24.6 147.8 16 7.6-1.3 14.9 3.8 16.2 11.4 1.3 7.6-3.8 14.9-11.4 16.2-16.8 3-33.8 4.4-50.8 4.4z" fill="#E5E8EA" p-id="1825"></path><path d="M247.1 417.6m-15.1 0a15.1 15.1 0 1 0 30.2 0 15.1 15.1 0 1 0-30.2 0Z" fill="#E5E8EA" p-id="1826"></path><path d="M872.4 453.6c0-178.8-145-323.8-323.8-323.8v323.8h323.8z" fill="#1888FF" p-id="1827"></path><path d="M872.4 467.6H548.6c-7.7 0-14-6.3-14-14V129.8c0-7.7 6.3-14 14-14 90.2 0 175 35.1 238.8 98.9 63.8 63.8 98.9 148.6 98.9 238.8 0.1 7.8-6.2 14.1-13.9 14.1z m-309.8-28H858c-3.4-77.5-35.2-149.8-90.4-205s-127.6-87-205-90.4v295.4z" fill="" p-id="1828"></path></svg>