<?xml version="1.0" standalone="no"?><!DOCTYPE svg PUBLIC "-//W3C//DTD SVG 1.1//EN" "http://www.w3.org/Graphics/SVG/1.1/DTD/svg11.dtd"><svg t="1540716918580" class="icon" style="" viewBox="0 0 1024 1024" version="1.1" xmlns="http://www.w3.org/2000/svg" p-id="1791" xmlns:xlink="http://www.w3.org/1999/xlink" width="32" height="32"><defs><style type="text/css"></style></defs><path d="M910.767076 427.362344l-31.105439-31.105439 27.363208-18.657942c18.769482-12.792351 23.609721-38.383192 10.81123-57.146535-12.785188-18.763342-38.362726-23.609721-57.146535-10.81123L282.651498 703.776791c-18.769482 12.798491-23.609721 38.383192-10.81123 57.153698 5.349845 7.847735 13.017478 13.017478 21.410636 15.721053l134.089951 134.103254c30.945803 30.952966 72.087828 48.009434 115.859751 48.009434 0.007163 0 0.013303 0 0.020466 0 43.75862-0.013303 84.906785-17.056468 115.852588-48.009434L910.767076 659.101289c30.952966-30.952966 47.996131-72.093968 47.996131-115.873054C958.762183 499.463476 941.720042 458.31531 910.767076 427.362344zM852.609515 600.930425 600.916099 852.597235c-15.423271 15.409968-35.912931 23.910573-57.70833 23.910573-21.789259 0-42.278919-8.488325-57.695027-23.910573L373.974413 741.059929l436.527075-297.646004 42.100864 42.10598c15.416108 15.416108 23.904433 35.912931 23.904433 57.70833C876.506784 565.023634 868.019483 585.520457 852.609515 600.930425z" p-id="1792"></path><path d="M754.288209 265.201058c-5.376451-7.898901-13.07376-13.160741-21.529339-15.845896L560.699142 77.29441c-9.552563-9.552563-23.221888-13.829983-36.468586-11.380188l-361.072569 65.975621c-16.888645 3.086291-30.075992 16.33299-33.094746 33.228799l-64.181765 359.272573c-2.369977 13.240559 1.89414 26.802436 11.406794 36.32123l69.184709 69.164243-27.367301 18.661012c-18.769482 12.798491-23.609721 38.383192-10.81123 57.153698 7.959276 11.673877 20.871353 17.952884 34.018791 17.952884 7.972579 0 16.038278-2.315742 23.127743-7.148817l578.038042-394.147872C762.247484 309.555242 767.087723 283.9644 754.288209 265.201058zM150.625556 517.711072l55.386448-310.031079 311.778886-56.972573L652.154064 285.065478 215.646432 582.707388 150.625556 517.711072z" p-id="1793"></path><path d="M272.855388 272.841062c-18.421558 18.395976-18.421558 48.237631 0 66.644863 18.394952 18.408255 48.223305 18.408255 66.645886 0 18.394952-18.407232 18.394952-48.248887 0-66.644863C321.078693 254.44611 291.25034 254.44611 272.855388 272.841062z" p-id="1794"></path></svg>