<?xml version="1.0" standalone="no"?><!DOCTYPE svg PUBLIC "-//W3C//DTD SVG 1.1//EN" "http://www.w3.org/Graphics/SVG/1.1/DTD/svg11.dtd"><svg t="1540344254808" class="icon" style="" viewBox="0 0 1024 1024" version="1.1" xmlns="http://www.w3.org/2000/svg" p-id="2170" xmlns:xlink="http://www.w3.org/1999/xlink" width="32" height="32"><defs><style type="text/css"></style></defs><path d="M983.04 995.84H275.968c-14.336 0-25.6-11.264-25.6-25.6v-202.752c0-14.336 11.264-25.6 25.6-25.6s25.6 11.264 25.6 25.6v177.152H957.44V288.768h-182.784c-14.336 0-25.6-11.264-25.6-25.6s11.264-25.6 25.6-25.6H983.04c14.336 0 25.6 11.264 25.6 25.6v707.072c0 14.336-11.264 25.6-25.6 25.6z" p-id="2171"></path><path d="M753.152 793.6H46.08c-14.336 0-25.6-11.264-25.6-25.6V60.928c0-14.336 11.264-25.6 25.6-25.6h707.072c14.336 0 25.6 11.264 25.6 25.6V768c0 14.336-11.264 25.6-25.6 25.6zM71.68 742.4h655.872V86.528H71.68V742.4z" p-id="2172"></path><path d="M566.784 256H232.448c-14.336 0-25.6-11.264-25.6-25.6s11.264-25.6 25.6-25.6h334.336c14.336 0 25.6 11.264 25.6 25.6s-11.264 25.6-25.6 25.6zM566.784 409.6H232.448c-14.336 0-25.6-11.264-25.6-25.6s11.264-25.6 25.6-25.6h334.336c14.336 0 25.6 11.264 25.6 25.6s-11.264 25.6-25.6 25.6zM364.032 579.584H232.448c-14.336 0-25.6-11.264-25.6-25.6s11.264-25.6 25.6-25.6h131.584c14.336 0 25.6 11.264 25.6 25.6s-11.264 25.6-25.6 25.6zM568.32 694.784c-57.344 0-103.936-46.592-103.936-103.936 0-57.344 46.592-103.936 103.936-103.936s103.936 46.592 103.936 103.936c0 57.344-46.592 103.936-103.936 103.936z m0-156.672c-29.184 0-52.736 23.552-52.736 52.736s23.552 52.736 52.736 52.736 52.736-23.552 52.736-52.736-23.552-52.736-52.736-52.736z" p-id="2173"></path></svg>