<?xml version="1.0" standalone="no"?><!DOCTYPE svg PUBLIC "-//W3C//DTD SVG 1.1//EN" "http://www.w3.org/Graphics/SVG/1.1/DTD/svg11.dtd"><svg t="1535167803112" class="icon" style="" viewBox="0 0 1024 1024" version="1.1" xmlns="http://www.w3.org/2000/svg" p-id="8520" xmlns:xlink="http://www.w3.org/1999/xlink" width="32" height="32"><defs><style type="text/css"></style></defs><path d="M802.441369 206.194663L464.830916 69.024471c-15.789171-5.272506-31.663382-5.272506-47.480899 0L74.580445 206.194663c-21.061676 5.272506-36.964234 31.663382-36.964234 52.725058v400.880523c0 21.061676 10.545012 42.208393 31.691728 52.753405l342.854612 184.56605c5.187465 10.346584 15.477356 10.516665 25.937327 10.516665h0.992138c10.346584 0 20.636474-0.08504 25.82394-5.272506l193.892149-104.344591c-9.524527-11.423763-17.830141-23.924704-24.746761-37.304396l-179.747093 94.196435V443.485771l342.854612-179.293544v198.002436c6.378031-0.595283 12.812756-0.907098 19.332521-0.907098 7.738678 0 15.420662 0.425202 22.960913 1.275606V258.919721c-0.08504-21.146717-15.959251-47.452552-37.020928-52.725058zM433.252574 105.960359h10.516665l73.815082 26.419222-327.008748 152.874322-84.416787-47.480899 327.093788-131.812645z m-15.817517 754.195106L85.09711 680.86192c-5.272506 0-10.516665-10.516665-10.516665-15.789171V264.192227l89.689293 47.480899v158.231868c0 5.272506 5.244159 10.545012 10.516664 15.789171l105.478463 52.753404c15.817517 10.516665 31.691728 0 31.691729-15.78917v-131.897686l105.478463 52.725058v416.669694z m21.061676-448.248035l-100.205957-52.753405 326.980401-163.504374 105.478463 42.208394-332.252907 174.049385z" p-id="8521"></path><path d="M816.501384 461.485993c-113.018713 0-205.004097 91.985384-205.004097 205.004097s91.985384 205.004097 205.004097 205.004097 205.004097-91.985384 205.004097-205.004097-91.985384-205.004097-205.004097-205.004097z m-156.842874 205.004097c0-86.599491 70.243384-156.814528 156.842874-156.814528 33.052375 0 63.808659 10.233197 89.17905 27.94995l-218.071974 218.071974c-17.716753-25.370391-27.94995-56.126675-27.94995-89.207396z m156.842874 156.842874c-32.287011 0-62.02281-9.751301-87.13808-26.419222l217.561732-217.533385c16.696268 25.11527 26.419223 54.851069 26.419223 87.109733-0.028347 86.627837-70.243384 156.842875-156.842875 156.842874z" p-id="8522"></path></svg>