<?xml version="1.0" standalone="no"?><!DOCTYPE svg PUBLIC "-//W3C//DTD SVG 1.1//EN" "http://www.w3.org/Graphics/SVG/1.1/DTD/svg11.dtd"><svg t="1535100992240" class="icon" style="" viewBox="0 0 1024 1024" version="1.1" xmlns="http://www.w3.org/2000/svg" p-id="4994" xmlns:xlink="http://www.w3.org/1999/xlink" width="32" height="32"><defs><style type="text/css"></style></defs><path d="M977.454545 791.272727 837.818182 791.272727 837.818182 930.909091 930.909091 930.909091C956.625455 930.909091 977.454545 951.738182 977.454545 977.454545 977.454545 1003.170909 956.625455 1024 930.909091 1024L628.363636 1024C602.647273 1024 581.818182 1003.170909 581.818182 977.454545 581.818182 951.738182 602.647273 930.909091 628.363636 930.909091L744.727273 930.909091 744.727273 791.272727 46.545455 791.272727C20.829091 791.272727 0 770.443636 0 744.727273L0 279.272727C0 253.556364 20.829091 232.727273 46.545455 232.727273L744.727273 232.727273 744.727273 93.090909 628.363636 93.090909C602.647273 93.090909 581.818182 72.261818 581.818182 46.545455 581.818182 20.829091 602.647273 0 628.363636 0L930.909091 0C956.625455 0 977.454545 20.829091 977.454545 46.545455 977.454545 72.261818 956.625455 93.090909 930.909091 93.090909L837.818182 93.090909 837.818182 232.727273 977.454545 232.727273C1003.170909 232.727273 1024 253.556364 1024 279.272727L1024 744.727273C1024 770.443636 1003.170909 791.272727 977.454545 791.272727ZM139.636364 325.818182C113.92 325.818182 93.090909 346.647273 93.090909 372.363636L93.090909 651.636364C93.090909 677.352727 113.92 698.181818 139.636364 698.181818L744.727273 698.181818 744.727273 325.818182 139.636364 325.818182ZM930.909091 372.363636C930.909091 346.647273 910.08 325.818182 884.363636 325.818182L837.818182 325.818182 837.818182 698.181818 884.363636 698.181818C910.08 698.181818 930.909091 677.352727 930.909091 651.636364L930.909091 372.363636ZM605.090909 651.636364 186.181818 651.636364C160.465455 651.636364 139.636364 630.807273 139.636364 605.090909L139.636364 418.909091C139.636364 393.192727 160.465455 372.363636 186.181818 372.363636L605.090909 372.363636C630.807273 372.363636 651.636364 393.192727 651.636364 418.909091L651.636364 605.090909C651.636364 630.807273 630.807273 651.636364 605.090909 651.636364Z" p-id="4995"></path></svg>