<?xml version="1.0" standalone="no"?><!DOCTYPE svg PUBLIC "-//W3C//DTD SVG 1.1//EN" "http://www.w3.org/Graphics/SVG/1.1/DTD/svg11.dtd"><svg t="1552438123555" class="icon" style="" viewBox="0 0 1024 1024" version="1.1" xmlns="http://www.w3.org/2000/svg" p-id="953" xmlns:xlink="http://www.w3.org/1999/xlink" width="200" height="200"><defs><style type="text/css"></style></defs><path d="M722.7 256C713 148.3 622.5 64 512.3 64s-200.7 84.3-210.4 192c-0.6 6.3-0.9 12.8-0.9 19.3 0 84.3 49.4 157.1 120.8 191h181c71.4-33.9 120.8-106.7 120.8-191 0-6.6-0.3-13-0.9-19.3zM512.3 443.5c-92.9 0-168.3-75.3-168.3-168.3 0-6.5 0.4-13 1.1-19.3 9.6-83.9 80.8-149 167.2-149s157.6 65.1 167.2 149c0.7 6.3 1.1 12.8 1.1 19.3 0 93-75.4 168.3-168.3 168.3z" fill="#0C2B4A" p-id="954"></path><path d="M960.3 316v181H788.2v-48.8c0-11-9-20-20-20-11.1 0-20 9-20 20V497H276v-48.8c0-11-9-20-20-20s-20 9-20 20V497H64.2V316c0-33.1 26.9-60 60-60h776.1c33.2 0 60 26.8 60 60zM788.2 537h172.2v352.3c0 38.7-26.9 70.1-60 70.1H124.2c-33.1 0-60-31.4-60-70.1V537H236v38.5c0 11 9 20 20 20s20-9 20-20V537h472.1v38.5c0 11 8.9 20 20 20 11 0 20-9 20-20V537z" fill="#0C2B4A" p-id="955"></path></svg>