<?xml version="1.0" standalone="no"?><!DOCTYPE svg PUBLIC "-//W3C//DTD SVG 1.1//EN" "http://www.w3.org/Graphics/SVG/1.1/DTD/svg11.dtd"><svg t="1535178384765" class="icon" style="" viewBox="0 0 1024 1024" version="1.1" xmlns="http://www.w3.org/2000/svg" p-id="10027" xmlns:xlink="http://www.w3.org/1999/xlink" width="32" height="32"><defs><style type="text/css"></style></defs><path d="M932.736 220.8V126.72c0-31.36-26.112-62.72-57.472-62.72H216.832a57.984 57.984 0 0 0-57.472 57.472V220.8c-15.68 10.496-31.36 31.36-31.36 52.288v559.104c0 36.608 31.36 67.968 62.72 67.968h705.408c36.608 0 62.72-31.36 62.72-62.72V273.024c5.248-20.928-10.432-41.792-26.112-52.288z m-209.024 381.44H577.408v146.304c0 15.68-10.496 31.36-31.36 31.36-15.68 0-31.36-15.68-31.36-31.36V602.24H368.384c-15.68 0-31.36-15.68-31.36-31.36s15.68-31.36 31.36-31.36h146.304V393.216c0-15.68 15.68-31.36 31.36-31.36s31.36 15.68 31.36 31.36V539.52h146.304c15.68 0 31.36 10.432 31.36 31.36 0 15.68-15.68 31.36-31.36 31.36z m141.056-386.688H211.584v-62.72c0-15.68 15.68-31.36 31.36-31.36h595.712c15.68 0 31.36 15.68 31.36 31.36v62.72h-5.248z" p-id="10028"></path></svg>