<?xml version="1.0" standalone="no"?><!DOCTYPE svg PUBLIC "-//W3C//DTD SVG 1.1//EN" "http://www.w3.org/Graphics/SVG/1.1/DTD/svg11.dtd"><svg t="1534399432175" class="icon" style="" viewBox="0 0 1024 1024" version="1.1" xmlns="http://www.w3.org/2000/svg" p-id="2223" xmlns:xlink="http://www.w3.org/1999/xlink" width="16" height="16"><defs><style type="text/css"></style></defs><path d="M987.6 169.2c-9.7 12.7-23.8 10.9-30.1-2.8-7.5-16.4-23.8-16-36.7-15.9-16.1 0.2-22.9-7.9-30.1-18.3-8.4-12.2-17-24.2-25.4-36.4-7.7-11.1-17.4-18-32.2-15.5-2.8 0.5-6 0-7.4-3.3H815c-5.2 6.8-13.1 5.8-20.6 7.3-10 2-23.6 11.1-16.7 18.1 11.6 11.7 4.2 18.8 0.8 28.1-2.3 6.3-5.8 12.6-6.2 19.1-1 18.8-7.2 25.2-26.5 23.8-3.4-0.2-7.2-2.7-9 1.4-5.2 12.5-12.2 24.6-12 38.6 0.1 6.8 3.7 9.1 10.4 5.5 9.9-5.4 21.4-2.1 32.4-6.1 12.1-4.4 20.8 7.6 27.6 16.7 3.9 5.2-0.6 6.8-5.6 6.8-23.1 0.4-40.3 10-51.5 29.6-2.8 4.9-7.4 9-14.7 8.3-3.2-0.3-8-1.5-9.3 2.9-5.3 18.5-17.3 14.3-30.2 8.8-5.1-2.2-11-3-14.7 2-3.3 4.4-5.7 9.9-2.9 15.6 2.2 4.5 5.1 8.6 7.9 13.3-5.3 3.2-12.2 2.8-15.4 8.4-11 18.9-29.1 23-49.6 21.7-10.3-0.6-21.3-0.8-29.2 5.8-18.9 15.7-38.3 9.6-57.9 2.8-15.7-5.5-27.9-19.7-47.6-15.7-21 4.3-41.1-3.8-61.5-6.7-3.1-0.4-5.2-0.8-6.3-4.5-5.4-17.4-16.1-30.9-31.5-42.1-10-7.2-18.7-12.7-31.8-12.5-22.3 0.3-24.6-4.1-14.6-23.6 8.8-17.2-0.5-41.3-19.2-48.9-8.6-3.5-14-10.4-14.3-18.2-0.7-14.7-15.8-10.8-17.2-8.7-6 9-15.6 9.6-23.8 13.6-2.6 1.3-4.1 5.4-5.3 8.5-7.5 20.4-7.7 21.1-28.6 10.5-10-5-15.4-4.9-20.1 5.9-7.8 17.9-17.2 34.5-43.2 26.6-4.6-1.4-13.5-0.9-12.2 5.8 3.7 19 1.6 34.5-11.4 51.3-6.2 8-9.5 11.2-19 12.2-19.2 2.1-39.7 0.5-55.2 15.4-2.8 2.7-7.5 2.6-9.8 0-10.7-12.2-22.7-3.3-32.9-0.9S4.5 337.5 0.7 346.3c-1.7 4 0.9 5.1 2.9 6.5 16.9 11.7 18 26.1 1.8 41.2 11.3 0.6 18.5 9.5 17.4 16.1-2.6 16.4 9.9 21.3 19.2 27.7 7 4.8 8.9 9.7 11.5 17.1 3.6 10.2 6.7 18.4 5.6 30.2-1.6 17 1.4 17.3-11.5 24.8-0.5 0.3-0.8 0.9-1.2 1.3-3.7 4.2 0.4 34.2 6.3 35.6 18 4.4 20.3 35 46.5 25.2 3.5-1.3 3.5 3.8 5.4 5.7 18.4 19.2 36.2 38.9 56.7 56.2 13.4 11.3 30 13.5 46.4 13.3 12.5-0.1 19.6 2.6 21.3 14.7 11.1-1.8 11.7-17.3 24.4-16.9 14.8 0.5 36.4 18.3 39.8 34.2 1.4 6.6 5.2 6.1 10 6.6 20.5 2.4 34-12 49.7-20 12.2-6.2 22.4-8.1 33.8-1.1 6.4 3.9 11.5 7.6 17.5-1.4 5.3-8 11.9-9 13.5 2.9 0.6 4.6 3.8 6.8 6.3 10 8.6 11 6.3 36.4-4.4 44.8-12.5 9.8-20.8 20.8-15.7 37.9 13.9-6 26.5-8.8 26.4 12.7 0 2.3 1.8 8 7.9 7.8 3.5-0.2 5.4 1.6 4 5.5-2.6 6.8-13.5 15.1 3.7 18.7 8.3 1.7 11.6 14.9 23.2 9.9 4.5-2 8.1-1.9 10 2.9 1.8 4.7 4.8 9.4 10.1 7.2 6.4-2.5-0.5-8.4 1.4-13.1 2.1-5.2-4.5-14.3 3.5-16.6 10.8-3 23.5-5.7 33.8-3 6.8 1.8 12.4 1.8 17.4 0.6-22.1-33.9-35-74.1-35-117.2 0-121.2 100.8-219.5 225.2-219.5 39.1 0 75.9 9.7 107.9 26.8 10.1-14.1 19.3-29 38.5-34.3 5.5-1.6 5.6-5.2 5.6-9.3 0-3.9-2.7-4.7-5.9-4.7-17.7 0.2-37.4-8.4-49.7 12.7-4.5 7.7-12.4 4-12.1-2.5 0.5-14.1-7.3-14.7-18-13.9-6.1 0.5-10.8-1.6-11.4-8.1-0.3-3.1-1.6-7.4 3.1-8.7 25.1-6.6 35-27.5 47.2-46 4-6.1 9.8-8.1 15-5.5 4.4 2.3 8.6 7.5 4.3 14.2-2.6 4.2-4.6 9.4-5.1 14.3-0.6 6.1-1.4 16.5 1.4 17.8 7.1 3.2 10.1-4.6 13.6-9.9 3.5-5.3 7.9-10.2 14.1-12.8 24-10.2 35.4-31.3 48.2-51.2 3.3-5.2 4.8-10.5 12.5-3.6 7.7 6.8 18.8-2.3 17.5-4.4-6-10.1 3.5-11.1 7.5-13.7 9.2-6 13.3-15.6 25.3-21.1 17.7-8.1 4.5-26.1-0.1-39.4-4.7-13.4-2.4-21.9 13.6-22 6.7 0 9.2-3.8 12.8-7.2v-79.6c-12.6 7.5-24.6 14.6-33.7 26.5zM782.4 485.4v170.2h170.3c0.1 0 0.1-170.2-170.3-170.2z m-34 34.1h-7.5c-3.3-0.4-6.7-1-10.1-1-3.5 0-6.7 0.8-10.1 1h-6.3v0.7c-95.9 8.5-171.4 88-171.4 186 0 103.6 84.1 187.6 187.8 187.6 97.7 0 177-74.8 186-170.1h1.9v-34H748.4V519.5z m132.8 204.2c-8.8 75.6-72.4 134.4-150.4 134.4-84.1 0-152.2-68.1-152.2-152 0-78.3 59.5-142 135.7-150.4v167.9h166.9v0.1z"  p-id="2224"></path></svg>