<?xml version="1.0" standalone="no"?><!DOCTYPE svg PUBLIC "-//W3C//DTD SVG 1.1//EN" "http://www.w3.org/Graphics/SVG/1.1/DTD/svg11.dtd"><svg t="1533448226502" class="icon" style="" viewBox="0 0 1024 1024" version="1.1" xmlns="http://www.w3.org/2000/svg" p-id="2196" xmlns:xlink="http://www.w3.org/1999/xlink" width="200" height="200"><defs><style type="text/css"></style></defs><path d="M892.592 927.984L132.464 928c-18.192-0.016-34.864-16.736-34.896-34.896V677.616c0-35.008 17.584-53.312 36.032-35.776l102.8 80.912c13.808 11.824 34.56 27.92 46.112 13.888l117.824-143.056c11.552-14.032 32.4-33.824 46.32-22.112l101.392 88.272c13.92 11.696 42.736 32.112 54.048 17.872L854.368 373.6c34.08-38.896 72.08-29.776 72.08 17.888v501.616c-0.016 18.16-15.664 34.896-33.856 34.88z" p-id="2197" ></path><path d="M605.744 537.216a55.84 55.84 0 0 1-38.208 21.184 55.008 55.008 0 0 1-41.76-12.8l-114.368-96.32-114.864 151.616a55.952 55.952 0 0 1-44.496 22.128c-12.8 0-25.312-4.432-35.328-12.64L116.48 528.368a55.84 55.84 0 0 1 70.672-86.432l55.408 45.328 115.344-152.272a55.744 55.744 0 0 1 38.288-21.776 56 56 0 0 1 42.16 12.768l114.976 96.848 148.56-186.336-41.408-34.384c-29.376-24.4-22.848-50.832 14.496-58.72l215.312-45.536c37.344-7.904 48.896 10.432 25.68 40.752L605.744 537.216z" p-id="2198"></path></svg>