<?xml version="1.0" standalone="no"?><!DOCTYPE svg PUBLIC "-//W3C//DTD SVG 1.1//EN" "http://www.w3.org/Graphics/SVG/1.1/DTD/svg11.dtd"><svg t="1534401541211" class="icon" style="" viewBox="0 0 1024 1024" version="1.1" xmlns="http://www.w3.org/2000/svg" p-id="5102" xmlns:xlink="http://www.w3.org/1999/xlink" width="32" height="32"><defs><style type="text/css"></style></defs><path d="M732.69 0H485.517c-30.014 0-52.965 22.952-52.965 52.966v812.137H361.93V52.966C361.931 24.717 338.979 0 308.966 0H61.793C31.78 0 8.828 22.952 8.828 52.966v918.068c0 28.249 22.951 52.966 52.965 52.966h247.173c30.013 0 52.965-22.952 52.965-52.966v-35.31h70.62v35.31c0 28.249 22.952 52.966 52.966 52.966H732.69c30.013 0 52.965-22.952 52.965-52.966V52.966C785.655 22.952 762.703 0 732.69 0zM167.724 935.724h-70.62v-70.62h70.62v70.62z m105.931-776.827H97.103V88.276h176.552v70.62z m317.793 776.827h-70.62v-70.62h70.62v70.62zM697.38 158.897H520.828V88.276h176.551v70.62zM963.972 1024c-28.248 0-51.2-22.952-51.2-51.2V51.2c0-28.248 22.952-51.2 51.2-51.2 28.249 0 51.2 22.952 51.2 51.2v921.6c0 28.248-22.951 51.2-51.2 51.2z" p-id="5103"></path></svg>