<?xml version="1.0" standalone="no"?><!DOCTYPE svg PUBLIC "-//W3C//DTD SVG 1.1//EN" "http://www.w3.org/Graphics/SVG/1.1/DTD/svg11.dtd"><svg t="1535168086981" class="icon" style="" viewBox="0 0 1755 1024" version="1.1" xmlns="http://www.w3.org/2000/svg" p-id="9344" xmlns:xlink="http://www.w3.org/1999/xlink" width="54.84375" height="32"><defs><style type="text/css"></style></defs><path d="M420.388571 278.308571v450.011429s6.765714 49.005714 22.125715 64.365714c15.36 15.36 44.068571 31.451429 44.068571 31.451429l316.342857 86.308571s28.16 8.411429 35.657143 4.754286c7.497143-3.474286 5.12-14.262857 5.12-14.262857V393.874286l-423.314286-115.565715zM1332.48 278.308571l-134.4 36.754286v195.474286l-88.502857 23.954286V339.2l-202.422857 55.222857v465.371429s-1.28 46.628571 4.571428 55.04c5.851429 8.411429 35.291429-3.474286 35.291429-3.474286l284.342857-77.714286s59.977143-15.725714 82.102857-37.851428c21.942857-21.942857 18.834286-114.834286 18.834286-114.834286V278.308571h0.182857zM1330.834286 231.314286L900.571429 112.274286S881.92 107.885714 875.52 107.885714s-25.782857 4.754286-25.782857 4.754286l-132.754286 36.754286L1175.771429 273.371429l155.062857-42.057143zM420.205714 231.314286l455.314286 123.062857 179.017143-48.274286-457.142857-123.611428-177.188572 48.822857z" fill="" p-id="9345"></path></svg>