<?xml version="1.0" standalone="no"?><!DOCTYPE svg PUBLIC "-//W3C//DTD SVG 1.1//EN" "http://www.w3.org/Graphics/SVG/1.1/DTD/svg11.dtd"><svg t="1540352730962" class="icon" style="" viewBox="0 0 1024 1024" version="1.1" xmlns="http://www.w3.org/2000/svg" p-id="2046" xmlns:xlink="http://www.w3.org/1999/xlink" width="32" height="32"><defs><style type="text/css"></style></defs><path d="M520 0.064L426.24 136.768h47.168v136.064h94.4V136.768h46.016L520.128 0a511.488 511.488 0 1 1-17.024 1022.848A511.488 511.488 0 0 1 520 0.064zM665.6 716.8h12.288a38.912 38.912 0 0 0 38.912-38.912V371.712a38.976 38.976 0 0 0-38.912-38.912H448.512a38.912 38.912 0 0 0-38.912 38.912V384h229.76a26.24 26.24 0 0 1 26.24 25.792V716.8zM332.8 448.512v306.176c0 21.44 17.408 38.912 38.912 38.912h229.376a38.912 38.912 0 0 0 38.912-38.912V448.512a38.976 38.976 0 0 0-38.912-38.912H371.712a38.912 38.912 0 0 0-38.912 38.912z m218.048 155.264h-55.68v25.92h56.448a13.056 13.056 0 0 1 13.312 13.44c0 7.296-5.504 12.544-13.312 12.544h-56.448v35.84c0 6.208-6.08 11.264-13.568 11.264-7.424 0-12.736-5.056-12.736-11.328v-35.776h-45.12c-7.808 0-14.144-5.12-14.144-12.608a13.824 13.824 0 0 1 14.08-13.376h45.184v-25.92h-45.12c-7.808 0-14.144-5.184-14.144-12.608a13.824 13.824 0 0 1 14.08-13.376h37.12l-41.28-45.248c-3.712-4.16-2.176-11.52 3.456-16.448 5.568-4.864 13.12-5.504 16.832-1.28l42.24 47.04 41.408-47.168c3.712-4.096 11.264-3.456 16.896 1.408 5.568 4.928 7.04 12.288 3.392 16.448l-41.28 45.248h48.384a13.76 13.76 0 0 1 14.08 13.376c0 7.424-6.272 12.608-14.08 12.608z" fill="#666666" p-id="2047"></path></svg>