<?xml version="1.0" standalone="no"?><!DOCTYPE svg PUBLIC "-//W3C//DTD SVG 1.1//EN" "http://www.w3.org/Graphics/SVG/1.1/DTD/svg11.dtd"><svg t="1540616448302" class="icon" style="" viewBox="0 0 1024 1024" version="1.1" xmlns="http://www.w3.org/2000/svg" p-id="2525" xmlns:xlink="http://www.w3.org/1999/xlink" width="32" height="32"><defs><style type="text/css"></style></defs><path d="M396.64 186.016c-0.512-0.512-0.128 0.224 0 0z m148-57.024v12.256c0.096-0.352 0-3.84 0-12.256z m0 0M558.752 651.616a155.968 155.968 0 0 1-155.776-155.776 155.968 155.968 0 0 1 155.776-155.776 155.968 155.968 0 0 1 155.776 155.776 155.968 155.968 0 0 1-155.776 155.776z m0-277.088a121.44 121.44 0 0 0-121.312 121.312 121.472 121.472 0 0 0 121.312 121.312 121.472 121.472 0 0 0 121.312-121.312c0-66.88-54.4-121.312-121.312-121.312z m0 0" p-id="2526"></path><path d="M703.616 785.088h-147.648a17.216 17.216 0 0 1 0-34.432h147.648a134.752 134.752 0 0 0 134.592-134.592V253.216h-424.32a134.752 134.752 0 0 0-134.592 134.592v105.216a17.216 17.216 0 0 1-34.432 0v-105.216a169.28 169.28 0 0 1 169.056-169.056h441.536c9.504 0 17.216 7.712 17.216 17.216v380.064a169.28 169.28 0 0 1-169.056 169.056z m0 0" p-id="2527"></path><path d="M552.48 430.112l67.744 50.464a19.04 19.04 0 0 1 0 30.528l-67.744 50.464a19.04 19.04 0 0 1-30.4-15.264v-100.928c0-15.648 17.856-24.608 30.4-15.264z m0 0M156.032 826.048a68.992 68.992 0 1 0 138.016 0 68.992 68.992 0 0 0-138.016 0z m0 0M384.704 864.896a17.216 17.216 0 0 1-17.216-17.216c0-90.464-73.6-164.064-164.096-164.064a17.216 17.216 0 0 1 0-34.432 198.72 198.72 0 0 1 198.528 198.528 17.216 17.216 0 0 1-17.216 17.184z m0 0" p-id="2528"></path><path d="M492.832 864.896a17.216 17.216 0 0 1-17.216-17.216c0-150.112-122.112-272.224-272.224-272.224a17.216 17.216 0 0 1 0-34.432c81.92 0 158.944 31.904 216.864 89.824a304.704 304.704 0 0 1 89.824 216.864 17.28 17.28 0 0 1-17.248 17.184z m0 0" p-id="2529"></path></svg>