<?xml version="1.0" standalone="no"?><!DOCTYPE svg PUBLIC "-//W3C//DTD SVG 1.1//EN" "http://www.w3.org/Graphics/SVG/1.1/DTD/svg11.dtd"><svg t="1534401019490" class="icon" style="" viewBox="0 0 1024 1024" version="1.1" xmlns="http://www.w3.org/2000/svg" p-id="2938" xmlns:xlink="http://www.w3.org/1999/xlink" width="16" height="16"><defs><style type="text/css"></style></defs><path d="M1023.688 170.564C1023.688 76.429 947.358 0 853.123 0S682.458 76.429 682.458 170.564c0 79.38 54.521 145.554 127.949 164.612v133.999H676.356c-19.008-73.576-85.133-127.948-164.463-127.948-79.53 0-145.655 54.372-164.662 127.948H128.048v219.184C54.621 707.366 0 773.491 0 852.921c0 94.336 76.429 170.665 170.665 170.665S341.33 947.257 341.33 852.921c0-79.43-54.521-145.555-128.048-164.562V554.408h133.951c19.007 73.528 85.132 128.049 164.662 128.049 79.33 0 145.556-54.521 164.463-128.049h219.383V335.177c73.426-18.959 127.947-85.132 127.947-164.613M255.997 852.921c0 47.218-38.215 85.333-85.333 85.333s-85.332-38.115-85.332-85.333c0-47.018 38.214-85.332 85.332-85.332s85.333 38.314 85.333 85.332m255.897-255.797c-47.118 0-85.332-38.214-85.332-85.332 0-47.118 38.214-85.332 85.332-85.332 47.118 0 85.232 38.214 85.232 85.332 0 47.118-38.114 85.332-85.232 85.332m341.229-341.227c-47.118 0-85.332-38.214-85.332-85.333 0-47.118 38.214-85.232 85.332-85.232 47.018 0 85.332 38.115 85.332 85.232 0 47.119-38.314 85.333-85.332 85.333" p-id="2939"></path></svg>