<?xml version="1.0" standalone="no"?><!DOCTYPE svg PUBLIC "-//W3C//DTD SVG 1.1//EN" "http://www.w3.org/Graphics/SVG/1.1/DTD/svg11.dtd"><svg t="1534401613258" class="icon" style="" viewBox="0 0 1024 1024" version="1.1" xmlns="http://www.w3.org/2000/svg" p-id="5297" xmlns:xlink="http://www.w3.org/1999/xlink" width="32" height="32"><defs><style type="text/css"></style></defs><path d="M899.15904 846.1824H131.6608c-39.18848 0-71.07072-29.11232-71.07072-64.91648V161.32608c0-35.78368 31.88736-64.90112 71.07072-64.90112h767.49824c39.18848 0 71.08096 29.11232 71.08096 64.90112v619.93984c0 35.80416-31.89248 64.91648-71.08096 64.91648zM139.19232 132.9408c-24.6784 0-44.75904 17.39776-44.75904 38.784v602.98752c0 21.39136 20.08064 38.79424 44.75904 38.79424h750.7968c24.67328 0 44.75904-17.40288 44.75904-38.79424V171.7248c0-21.38624-20.08576-38.784-44.75904-38.784H139.19232z m795.55072 398.57664H366.96576v18.24768h567.7824v-18.24768h-0.00512z m0-95.98976H366.96576v19.16928h567.7824v-19.16928h-0.00512z m0 187.41248H94.42816v20.61312h840.31488v-20.61312z m0 95.232H94.42816v20.54144h840.31488v-20.54144zM371.6864 344.71936h-24.59136v468.79232h24.59136V344.71936z m298.55744 0h-22.15936v468.79232h22.15936V344.71936zM249.05728 846.1824H224.7168l-46.82752 60.53888h-37.7856l46.82752-60.53888h-24.33536l-58.99776 76.26752h86.47168l58.98752-76.26752zM934.74304 329.17504H94.42816v20.53632h840.31488v-20.53632z m-82.8416 517.00736h-24.87808l47.88736 60.53888h-38.64064l-47.8976-60.53888h-24.87808l60.31872 76.26752h88.43264l-60.34432-76.26752z" p-id="5298"></path></svg>