<?xml version="1.0" standalone="no"?><!DOCTYPE svg PUBLIC "-//W3C//DTD SVG 1.1//EN" "http://www.w3.org/Graphics/SVG/1.1/DTD/svg11.dtd"><svg t="1542809530356" class="icon" style="" viewBox="0 0 1024 1024" version="1.1" xmlns="http://www.w3.org/2000/svg" p-id="4483" xmlns:xlink="http://www.w3.org/1999/xlink" width="32" height="32"><defs><style type="text/css"></style></defs><path d="M633.904762 195.047619m-146.285714 0a146.285714 146.285714 0 1 0 292.571428 0 146.285714 146.285714 0 1 0-292.571428 0Z" fill="#95CEF9" p-id="4484"></path><path d="M390.095238 195.047619m-146.285714 0a146.285714 146.285714 0 1 0 292.571428 0 146.285714 146.285714 0 1 0-292.571428 0Z" fill="#95CEF9" p-id="4485"></path><path d="M804.571429 975.238095H219.428571c-68.266667 0-121.904762-56.07619-121.904761-121.904762V438.857143h828.95238v414.47619c0 68.266667-53.638095 121.904762-121.904761 121.904762z" fill="#2C9EF4" p-id="4486"></path><path d="M902.095238 463.238095H121.904762c-65.828571 0-121.904762-53.638095-121.904762-121.904762 0-65.828571 53.638095-121.904762 121.904762-121.904762h780.190476c68.266667 0 121.904762 53.638095 121.904762 121.904762s-53.638095 121.904762-121.904762 121.904762z" fill="#2C9EF4" p-id="4487"></path><path d="M512 499.809524c-68.266667 0-126.780952-46.32381-148.72381-107.276191-4.87619-14.628571-19.504762-26.819048-34.133333-26.819047-24.380952 0-41.447619 24.380952-34.133333 48.761904 29.257143 92.647619 117.028571 158.47619 216.990476 158.476191s187.733333-65.828571 216.990476-158.476191c7.314286-24.380952-9.752381-48.761905-34.133333-48.761904-17.066667 0-29.257143 9.752381-34.133333 26.819047-21.942857 60.952381-80.457143 107.27619-148.72381 107.276191z" fill="#FFFFFF" p-id="4488"></path></svg>