<?xml version="1.0" standalone="no"?><!DOCTYPE svg PUBLIC "-//W3C//DTD SVG 1.1//EN" "http://www.w3.org/Graphics/SVG/1.1/DTD/svg11.dtd"><svg t="1534401119940" class="icon" style="" viewBox="0 0 1024 1024" version="1.1" xmlns="http://www.w3.org/2000/svg" p-id="4249" xmlns:xlink="http://www.w3.org/1999/xlink" width="16" height="16"><defs><style type="text/css"></style></defs><path d="M512 351.06816c-88.8832 0-160.93184 72.04864-160.93184 160.93184 0 88.82176 72.04864 160.8704 160.93184 160.8704S672.8704 600.82176 672.8704 512c0.06144-88.8832-71.9872-160.93184-160.8704-160.93184z m418.33472 128.75776h-33.49504c-15.4624-187.65824-165.0688-337.26464-352.7168-352.7168 0.0512-0.44032 0.0512-0.88064 0.0512-1.32096V93.61408a32.18432 32.18432 0 0 0-64.34816 0v33.49504c-187.5968 15.4624-337.2032 165.05856-352.7168 352.7168h-33.4848a32.18432 32.18432 0 0 0 0 64.34816h32.16384c0.44032 0 0.88064-0.0512 1.3312-0.0512 15.50336 187.65824 165.09952 337.2544 352.70656 352.7168v33.54624a32.18432 32.18432 0 0 0 64.34816 0V898.1504c0-0.43008 0-0.88064-0.0512-1.31072 187.65824-15.4624 337.2544-165.0688 352.7168-352.7168 0.43008 0 0.88064 0.0512 1.37216 0.0512h32.17408a32.18432 32.18432 0 1 0-0.0512-64.34816zM512 834.02752c-177.8688 0-322.02752-144.20992-322.02752-322.02752 0-177.8688 144.15872-322.07872 322.02752-322.07872 177.8176 0 322.02752 144.20992 322.02752 322.07872 0 177.8176-144.20992 322.02752-322.02752 322.02752z" p-id="4250"></path></svg>