<?xml version="1.0" standalone="no"?><!DOCTYPE svg PUBLIC "-//W3C//DTD SVG 1.1//EN" "http://www.w3.org/Graphics/SVG/1.1/DTD/svg11.dtd"><svg t="1540344355183" class="icon" style="" viewBox="0 0 1024 1024" version="1.1" xmlns="http://www.w3.org/2000/svg" p-id="2300" xmlns:xlink="http://www.w3.org/1999/xlink" width="32" height="32"><defs><style type="text/css"></style></defs><path d="M736.243227 257.673617l-43.817971 0c51.875484-61.470003 60.517305-134.379547 18.981307-173.151595-15.344476-14.33959-35.687804-21.921265-58.83806-21.921265-40.055275 0-85.383646 22.932292-121.246435 61.341067-7.182586 7.693216-13.633508 15.616676-19.397792 23.662933-5.805216-8.16803-12.19781-16.115026-19.247366-23.662933-35.855626-38.407752-81.177857-61.341067-121.234155-61.341067-23.14514 0-43.487444 7.581676-58.82578 21.908986-22.988574 21.453614-31.331589 55.262628-22.889313 92.747357 6.152117 27.331485 20.871353 55.491849 41.793872 80.416518l-43.778062 0c-87.979774 0-159.554926 71.580269-159.554926 159.561066l0 384.617821c0 87.973634 71.574129 159.547763 159.554926 159.547763l448.498734 0c87.985914 0 159.567205-71.574129 159.567205-159.547763L895.809409 417.23366C895.809409 329.253886 824.229141 257.673617 736.243227 257.673617zM819.131029 417.23366l0 153.963581L550.3484 571.19724 550.3484 334.351997l185.893804 0C781.945105 334.351997 819.131029 371.530758 819.131029 417.23366zM587.371618 176.270633c23.856337-25.552979 49.940412-36.991496 65.196885-36.991496 3.768837 0 5.946432 0.76134 6.502088 1.279133 5.098111 4.761444 2.320858 38.576597-30.726815 73.976852-23.856337 25.552979-49.933249 36.991496-65.184605 36.991496-0.00614 0-0.00614 0-0.00614 0-3.774977 0-5.965875-0.76748-6.514367-1.279133C551.540552 245.48604 554.317805 211.670887 587.371618 176.270633zM364.947829 140.55213c0.549515-0.511653 2.727111-1.272993 6.495948-1.272993 15.257495 0 41.328267 11.438517 65.190745 36.991496 15.862269 16.991999 27.213805 36.72339 31.138184 54.132898 2.982938 13.223163 0.399089 19.101033-0.399089 19.850094-0.549515 0.511653-2.739391 1.272993-6.508227 1.272993-15.263635 0-41.34771-11.438517-65.209164-36.991496-15.85613-16.98586-27.200502-36.71725-31.119765-54.126758C361.552499 147.1852 364.136348 141.306306 364.947829 140.55213zM287.744493 334.351997l185.925526 0 0 236.845243L204.868971 571.19724 204.868971 417.23366C204.868971 371.530758 242.047732 334.351997 287.744493 334.351997zM204.868971 801.851481 204.868971 647.87562l268.801049 0 0 236.845243L287.744493 884.720863C242.047732 884.720863 204.868971 847.542102 204.868971 801.851481zM736.243227 884.720863 550.3484 884.720863 550.3484 647.87562l268.781606 0 0 153.97586C819.131029 847.542102 781.945105 884.720863 736.243227 884.720863z" p-id="2301"></path></svg>