<?xml version="1.0" standalone="no"?><!DOCTYPE svg PUBLIC "-//W3C//DTD SVG 1.1//EN" "http://www.w3.org/Graphics/SVG/1.1/DTD/svg11.dtd"><svg t="1535167675706" class="icon" style="" viewBox="0 0 1024 1024" version="1.1" xmlns="http://www.w3.org/2000/svg" p-id="7830" xmlns:xlink="http://www.w3.org/1999/xlink" width="32" height="32"><defs><style type="text/css"></style></defs><path d="M985.6 192V76.8c0-38.4-32-76.8-70.4-76.8H108.8C70.4 0 38.4 32 38.4 70.4V192c-19.2 12.8-38.4 38.4-38.4 64v684.8c0 44.8 38.4 83.2 76.8 83.2h864c44.8 0 76.8-38.4 76.8-76.8V256c6.4-25.6-12.8-51.2-32-64z m-256 467.2H550.4v179.2c0 19.2-12.8 38.4-38.4 38.4-19.2 0-38.4-19.2-38.4-38.4v-179.2H294.4c-19.2 0-38.4-19.2-38.4-38.4s19.2-38.4 38.4-38.4h179.2V403.2c0-19.2 19.2-38.4 38.4-38.4s38.4 19.2 38.4 38.4v179.2h179.2c19.2 0 38.4 12.8 38.4 38.4 0 19.2-19.2 38.4-38.4 38.4z m172.8-473.6H102.4V108.8c0-19.2 19.2-38.4 38.4-38.4h729.6c19.2 0 38.4 19.2 38.4 38.4v76.8z" p-id="7831"></path></svg>