<?xml version="1.0" standalone="no"?><!DOCTYPE svg PUBLIC "-//W3C//DTD SVG 1.1//EN" "http://www.w3.org/Graphics/SVG/1.1/DTD/svg11.dtd"><svg t="1542075825532" class="icon" style="" viewBox="0 0 1229 1024" version="1.1" xmlns="http://www.w3.org/2000/svg" p-id="1235" xmlns:xlink="http://www.w3.org/1999/xlink" width="38.40625" height="32"><defs><style type="text/css"></style></defs><path d="M1160.533333 1024 68.266667 1024C30.583467 1024 0 984.4736 0 946.7904L0 273.066667 1228.8 273.066667 1228.8 946.7904C1228.8 984.4736 1198.216533 1024 1160.533333 1024ZM546.133333 477.866667 136.533333 477.866667 136.533333 614.4 546.133333 614.4 546.133333 477.866667ZM750.933333 477.866667 614.4 477.866667 614.4 614.4 750.933333 614.4 750.933333 477.866667ZM750.933333 750.933333 136.533333 750.933333 136.533333 887.466667 750.933333 887.466667 750.933333 750.933333ZM0 59.323733C0 21.572267 30.583467 0 68.266667 0L1160.533333 0C1198.216533 0 1228.8 21.572267 1228.8 59.323733L1228.8 136.533333 0 136.533333 0 59.323733Z" p-id="1236"></path></svg>