<?xml version="1.0" standalone="no"?><!DOCTYPE svg PUBLIC "-//W3C//DTD SVG 1.1//EN" "http://www.w3.org/Graphics/SVG/1.1/DTD/svg11.dtd"><svg t="1552437794673" class="icon" style="" viewBox="0 0 1024 1024" version="1.1" xmlns="http://www.w3.org/2000/svg" p-id="787" xmlns:xlink="http://www.w3.org/1999/xlink" width="200" height="200"><defs><style type="text/css"></style></defs><path d="M759.04 710.4l5.248-321.024a158.976 158.976 0 0 0-44.16-112.896L532.48 80.256 343.808 287.744a125.952 125.952 0 0 0-32.896 85.12V710.4H192v217.6h691.2v-217.6zM532.736 98.944l103.424 108.288A152.832 152.832 0 0 1 436.48 204.8zM537.6 576a102.4 102.4 0 1 1 102.4-102.4 102.4 102.4 0 0 1-102.4 102.4z m332.8 339.2H544V588.8a115.2 115.2 0 1 0-12.8 0v326.4H204.8v-192h112.512V716.8h6.4V372.864a112.896 112.896 0 0 1 29.568-76.8l74.496-82.048a165.632 165.632 0 0 0 217.6 2.048l65.92 68.992a145.536 145.536 0 0 1 40.576 103.68L746.112 716.8h6.4v6.4H870.4z" p-id="788"></path></svg>