<?xml version="1.0" standalone="no"?><!DOCTYPE svg PUBLIC "-//W3C//DTD SVG 1.1//EN" "http://www.w3.org/Graphics/SVG/1.1/DTD/svg11.dtd"><svg t="1552438445415" class="icon" style="" viewBox="0 0 1024 1024" version="1.1" xmlns="http://www.w3.org/2000/svg" p-id="1464" xmlns:xlink="http://www.w3.org/1999/xlink" width="200" height="200"><defs><style type="text/css"></style></defs><path d="M809.10336 313.49248h-56.03328c0.56832-3.9168 0.85504-7.8592 0.86016-11.81696V198.7072c0-45.41952-36.98176-82.39616-82.42688-82.39616H363.44832c-45.44 0-82.42688 36.96128-82.42688 82.39616v102.97344c0 4.01408 0.3072 7.95648 0.86016 11.81696H214.89664c-74.58304 0-135.04 60.47232-135.04 135.05536v324.09088c0 74.60864 60.45696 135.05024 135.04 135.05024h594.21184c74.58304 0 135.04-60.4416 135.04-135.05024v-324.096c-0.00512-74.58304-60.47232-135.05536-135.04512-135.05536zM337.8176 301.68064V198.7072a25.6512 25.6512 0 0 1 25.63072-25.6256h308.06016a25.6512 25.6512 0 0 1 25.64608 25.6256v102.97344c0 4.25984-1.0496 8.27904-2.8928 11.81696H340.71552a25.45664 25.45664 0 0 1-2.89792-11.81696z m366.83776 399.2576h-118.79424v131.75296h-137.3184v-131.75296H319.35488V562.2272h129.18784V441.03168h137.3184v121.1904h118.78912l0.00512 138.71616z" fill="#575757" p-id="1465"></path></svg>