<?xml version="1.0" standalone="no"?><!DOCTYPE svg PUBLIC "-//W3C//DTD SVG 1.1//EN" "http://www.w3.org/Graphics/SVG/1.1/DTD/svg11.dtd"><svg t="1535113824842" class="icon" style="" viewBox="0 0 1024 1024" version="1.1" xmlns="http://www.w3.org/2000/svg" p-id="6422" xmlns:xlink="http://www.w3.org/1999/xlink" width="32" height="32"><defs><style type="text/css"></style></defs><path d="M512 680.75c-31.050 0-56.25 25.144-56.25 56.25s25.2 56.25 56.25 56.25c31.106 0 56.25-25.144 56.25-56.25s-25.144-56.25-56.25-56.25zM512 230.75c-62.1 0-112.5 50.4-112.5 112.5s56.25 225 56.25 225c0 31.106 25.2 56.25 56.25 56.25 31.106 0 56.25-25.144 56.25-56.25l56.25-225c0-62.1-50.4-112.5-112.5-112.5zM512 62c-248.512 0-450 201.487-450 450s201.487 450 450 450c248.512 0 450-201.487 450-450s-201.487-450-450-450zM512 849.5c-186.356 0-337.5-151.144-337.5-337.5s151.144-337.5 337.5-337.5c186.412 0 337.5 151.144 337.5 337.5s-151.088 337.5-337.5 337.5z" p-id="6423"></path></svg>